<?xml version="1.0" encoding="UTF-8" standalone="no"?>
<!-- Created with Inkscape (http://www.inkscape.org/) -->

<svg
   xmlns:dc="http://purl.org/dc/elements/1.1/"
   xmlns:cc="http://creativecommons.org/ns#"
   xmlns:rdf="http://www.w3.org/1999/02/22-rdf-syntax-ns#"
   xmlns:svg="http://www.w3.org/2000/svg"
   xmlns="http://www.w3.org/2000/svg"
   xmlns:sodipodi="http://sodipodi.sourceforge.net/DTD/sodipodi-0.dtd"
   xmlns:inkscape="http://www.inkscape.org/namespaces/inkscape"
   width="74.990494mm"
   height="74.990494mm"
   viewBox="0 0 265.71425 265.71429"
   id="svg2"
   version="1.1"
   inkscape:version="0.91 r13725"
   sodipodi:docname="biostata.svg"
   inkscape:export-filename="/home/ek/Work/stat/biostata/resources/biostata.png"
   inkscape:export-xdpi="300"
   inkscape:export-ydpi="300">
  <defs
     id="defs4">
    <filter
       x="-0.30000001"
       width="1.6"
       y="-0.30000001"
       height="1.6"
       style="color-interpolation-filters:sRGB"
       inkscape:label="Felt Feather"
       id="filter5236">
      <feGaussianBlur
         stdDeviation="0.01 0.49"
         result="blur"
         id="feGaussianBlur5238" />
      <feComposite
         in2="blur"
         operator="atop"
         result="composite1"
         id="feComposite5240"
         in="SourceGraphic" />
      <feComposite
         in2="composite1"
         operator="in"
         result="composite2"
         id="feComposite5242" />
      <feComposite
         in2="composite2"
         operator="in"
         result="composite3"
         id="feComposite5244" />
      <feTurbulence
         type="fractalNoise"
         numOctaves="3"
         seed="79"
         baseFrequency="0.0345 0.0371"
         result="turbulence"
         id="feTurbulence5246" />
      <feDisplacementMap
         in="composite3"
         in2="turbulence"
         xChannelSelector="R"
         scale="24.1"
         yChannelSelector="G"
         result="map"
         id="feDisplacementMap5248" />
      <feColorMatrix
         values="1 0 0 0 0 0 1 0 0 0 0 0 1 0 0 0 0 0 1.59 -0 "
         result="colormatrix"
         id="feColorMatrix5250" />
      <feComposite
         in="composite3"
         in2="colormatrix"
         operator="atop"
         result="composite4"
         id="feComposite5252" />
    </filter>
    <filter
       x="-0.30000001"
       width="1.6"
       y="-0.30000001"
       height="1.6"
       style="color-interpolation-filters:sRGB"
       inkscape:label="Felt Feather"
       id="filter5236-3">
      <feGaussianBlur
         stdDeviation="0.01 0.49"
         result="blur"
         id="feGaussianBlur5238-5" />
      <feComposite
         in2="blur"
         operator="atop"
         result="composite1"
         id="feComposite5240-6"
         in="SourceGraphic" />
      <feComposite
         in2="composite1"
         operator="in"
         result="composite2"
         id="feComposite5242-2" />
      <feComposite
         in2="composite2"
         operator="in"
         result="composite3"
         id="feComposite5244-9" />
      <feTurbulence
         type="fractalNoise"
         numOctaves="3"
         seed="79"
         baseFrequency="0.0345 0.0371"
         result="turbulence"
         id="feTurbulence5246-1" />
      <feDisplacementMap
         in="composite3"
         in2="turbulence"
         xChannelSelector="R"
         scale="24.1"
         yChannelSelector="G"
         result="map"
         id="feDisplacementMap5248-2" />
      <feColorMatrix
         values="1 0 0 0 0 0 1 0 0 0 0 0 1 0 0 0 0 0 1.59 -0 "
         result="colormatrix"
         id="feColorMatrix5250-7" />
      <feComposite
         in="composite3"
         in2="colormatrix"
         operator="atop"
         result="composite4"
         id="feComposite5252-0" />
    </filter>
    <clipPath
       clipPathUnits="userSpaceOnUse"
       id="clipPath7064">
      <rect
         style="opacity:1;fill:none;fill-opacity:1;stroke:#000000;stroke-width:3.84225345;stroke-linecap:round;stroke-miterlimit:4;stroke-dasharray:none;stroke-opacity:1"
         id="rect7066"
         width="264.80759"
         height="219.35072"
         x="268.90628"
         y="-191.05002" />
    </clipPath>
  </defs>
  <sodipodi:namedview
     id="base"
     pagecolor="#ffffff"
     bordercolor="#666666"
     borderopacity="1.0"
     inkscape:pageopacity="0.0"
     inkscape:pageshadow="2"
     inkscape:zoom="0.98994949"
     inkscape:cx="66.995402"
     inkscape:cy="389.18539"
     inkscape:document-units="px"
     inkscape:current-layer="layer1"
     showgrid="false"
     inkscape:window-width="1920"
     inkscape:window-height="1025"
     inkscape:window-x="0"
     inkscape:window-y="0"
     inkscape:window-maximized="1"
     fit-margin-top="0"
     fit-margin-left="0"
     fit-margin-right="0"
     fit-margin-bottom="0"
     showguides="false" />
  <metadata
     id="metadata7">
    <rdf:RDF>
      <cc:Work
         rdf:about="">
        <dc:format>image/svg+xml</dc:format>
        <dc:type
           rdf:resource="http://purl.org/dc/dcmitype/StillImage" />
        <dc:title></dc:title>
      </cc:Work>
    </rdf:RDF>
  </metadata>
  <g
     inkscape:label="Layer 1"
     inkscape:groupmode="layer"
     id="layer1"
     transform="translate(-178.57144,-209.50504)">
    <circle
       style="opacity:1;fill:#cd0000;fill-opacity:1;stroke:none;stroke-width:5;stroke-linecap:round;stroke-miterlimit:4;stroke-dasharray:none;stroke-opacity:1"
       id="path4212"
       cx="311.42856"
       cy="342.36218"
       r="132.85715" />
    <path
       sodipodi:type="star"
       style="opacity:1;fill:#ffd700;fill-opacity:1;stroke:none;stroke-width:5;stroke-linecap:round;stroke-miterlimit:4;stroke-dasharray:none;stroke-opacity:1;filter:url(#filter5236-3)"
       id="path4228"
       sodipodi:sides="10"
       sodipodi:cx="330"
       sodipodi:cy="756.64795"
       sodipodi:r1="55.475681"
       sodipodi:r2="22.672283"
       sodipodi:arg1="0.60228735"
       sodipodi:arg2="0.84766363"
       inkscape:flatsided="false"
       inkscape:rounded="0"
       inkscape:randomized="0"
       d="m 375.71429,788.07652 -30.71121,-14.43034 3.5073,35.2982 -16.36395,-29.72598 -17.91029,30.61838 4.23378,-33.66731 -32.48676,14.24339 23.21435,-24.74888 -34.6544,-7.5721 33.32783,-6.3772 -23.58523,-26.4953 30.71121,14.43033 -3.5073,-35.29819 16.36395,29.72598 17.91029,-30.61838 -4.23378,33.66731 32.48676,-14.24339 -23.21435,24.74888 34.6544,7.57209 -33.32783,6.37721 z"
       inkscape:transform-center-x="0.98096904"
       inkscape:transform-center-y="-0.28836838"
       transform="matrix(2.1520823,0,0,1.9107044,-538.6868,-1462.4554)" />
    <path
       style="fill:#ffd700;stroke:#ffd700"
       d="m 272.80643,445.95681 c -0.32723,-1.3038 -1.80828,-4.3362 -2.12687,-4.35471 -0.30606,-0.0178 -1.95,-2.4296 -1.95,-2.86083 0,-0.1306 -0.18347,-0.45058 -0.40772,-0.71108 -0.61816,-0.71808 -1.03206,-2.94741 -0.95125,-5.12361 0.0398,-1.0725 0.10929,-1.95 0.15437,-1.95 0.0451,0 0.12207,-0.3375 0.17109,-0.75 0.049,-0.4125 0.17155,-1.155 0.2723,-1.65 0.10075,-0.495 0.23951,-1.63068 0.30836,-2.52374 0.0688,-0.89306 0.24619,-1.70306 0.3941,-1.8 0.38944,-0.25524 0.95875,-1.41089 0.95875,-1.94619 0,-0.25266 0.40067,-0.86926 0.89039,-1.37023 0.52314,-0.53517 0.81924,-1.09625 0.7179,-1.36034 -0.0949,-0.24723 -0.0188,-0.4495 0.16903,-0.4495 0.18783,0 0.42901,-0.22802 0.53595,-0.5067 0.32765,-0.85384 4.5166,-4.79373 5.4799,-5.15408 0.49875,-0.18657 1.31183,-0.4906 1.80683,-0.67562 0.495,-0.18502 0.9,-0.43451 0.9,-0.55444 0,-0.11992 0.50701,-0.44667 1.12669,-0.72611 1.08427,-0.48893 2.17331,-1.87065 2.17331,-2.75736 0,-0.23413 0.135,-0.42569 0.3,-0.42569 0.165,0 0.3,-0.20382 0.3,-0.45294 0,-0.24911 0.27,-0.68412 0.6,-0.96667 0.33,-0.28256 0.6,-0.75373 0.6,-1.04706 0,-0.29333 0.13076,-0.53333 0.29058,-0.53333 0.15982,0 0.21288,-0.2025 0.11791,-0.45 -0.095,-0.2475 -0.0233,-0.45 0.15941,-0.45 0.18266,0 0.3321,-0.25179 0.3321,-0.55954 0,-0.30775 0.24535,-0.8815 0.54523,-1.275 0.29988,-0.3935 0.72751,-1.18796 0.95028,-1.76546 0.22278,-0.5775 0.49455,-1.185 0.60394,-1.35 0.27759,-0.41871 0.12495,-2.28351 -0.20559,-2.51174 -0.14996,-0.10354 -0.29316,-0.51361 -0.31823,-0.91126 -0.0251,-0.39766 -0.15634,-0.80266 -0.29171,-0.9 -0.13538,-0.0973 -0.40924,-0.54825 -0.6086,-1.002 -0.19935,-0.45375 -0.51949,-0.825 -0.71141,-0.825 -0.19192,0 -0.736,-0.405 -1.20904,-0.9 -0.47305,-0.495 -1.00356,-0.9 -1.17891,-0.9 -0.38593,0 -1.17596,-0.75378 -1.17596,-1.122 0,-0.14568 -0.24803,-0.53109 -0.55118,-0.85648 -0.65343,-0.70138 -1.10132,-2.22152 -0.65454,-2.22152 0.16815,0 0.30579,-0.57375 0.30587,-1.275 8e-5,-0.70125 0.25332,-1.95 0.56275,-2.775 0.55269,-1.47359 0.92559,-3.72728 1.07616,-6.50403 0.0441,-0.81342 0.28326,-1.61115 0.56854,-1.89642 0.64424,-0.64425 0.62814,-1.53104 -0.0326,-1.79541 -0.85269,-0.34116 -3.68595,-1.05913 -4.69267,-1.18916 -0.51278,-0.0662 -1.27553,-0.25144 -1.69499,-0.41157 -1.42241,-0.54302 -8.14894,-0.0818 -8.56233,0.58703 -0.0882,0.14276 -0.39719,0.25956 -0.68657,0.25956 -0.28938,0 -1.19266,0.31857 -2.00729,0.70793 -0.81463,0.38936 -2.02115,0.88142 -2.68115,1.09347 -0.66,0.21205 -1.2815,0.51075 -1.38111,0.66377 -0.17278,0.26542 -1.5655,0.70006 -3.34389,1.04358 -0.45375,0.0876 -0.825,0.26398 -0.825,0.39185 0,0.12788 -1.35,0.17763 -3,0.11056 -1.91516,-0.0779 -3,-0.0115 -3,0.18345 0,0.16796 -0.405,0.30539 -0.9,0.30539 -0.495,0 -0.9,0.135 -0.9,0.3 0,0.165 -0.1695,0.3 -0.37667,0.3 -0.20718,0 -0.77723,0.48039 -1.26678,1.06754 -0.72583,0.87051 -0.89885,1.36964 -0.93748,2.70444 -0.0261,0.9003 0.0715,1.71038 0.21678,1.80017 0.14528,0.0898 0.26416,0.49279 0.26416,0.89556 0,0.40276 0.10353,0.73229 0.23007,0.73229 0.22505,0 0.40995,1.50234 0.44309,3.6 0.009,0.5775 0.12631,1.12233 0.26043,1.21073 0.36891,0.24318 -0.0471,1.48927 -0.49715,1.48927 -0.21648,0 -0.60021,0.20662 -0.85274,0.45915 -0.40527,0.40527 -0.58096,0.40826 -1.49696,0.0255 -0.5708,-0.23849 -1.10923,-0.3622 -1.19652,-0.27491 -0.0873,0.0873 -0.73956,0.20129 -1.44947,0.25331 -2.21959,0.16266 -3.37981,0.42396 -3.69075,0.83119 -0.165,0.2161 -0.53625,0.48155 -0.825,0.5899 -0.28875,0.10835 -0.525,0.33623 -0.525,0.50641 0,0.17018 -0.26235,0.30942 -0.58299,0.30942 -0.32065,0 -0.78236,0.28463 -1.02603,0.63252 -0.24367,0.34788 -0.5839,0.54546 -0.75607,0.43905 -0.17216,-0.1064 -0.55822,0.0477 -0.8579,0.34249 -0.29968,0.29477 -1.1673,0.84176 -1.92804,1.21555 -0.76074,0.37379 -1.5495,0.88004 -1.7528,1.125 -0.2033,0.24496 -0.54116,0.44539 -0.75081,0.44539 -0.20964,0 -0.45887,0.2025 -0.55385,0.45 -0.095,0.2475 -0.31192,0.45 -0.4821,0.45 -0.51635,0 -1.50941,1.16312 -1.50941,1.7679 0,0.31235 -0.20022,0.64474 -0.44494,0.73864 -0.25318,0.0972 -0.36865,0.36958 -0.26791,0.6321 0.0974,0.25375 0.0418,0.46136 -0.12353,0.46136 -0.16532,0 -1.09101,0.80909 -2.0571,1.79798 -0.96609,0.98889 -1.92527,1.79889 -2.13152,1.8 -0.20625,10e-4 -0.375,0.13702 -0.375,0.30202 0,0.165 -0.16875,0.30096 -0.375,0.30213 -0.20625,10e-4 -0.915,0.53455 -1.575,1.18528 -0.66,0.65073 -1.335,1.1904 -1.5,1.19926 -0.165,0.009 -0.73143,0.42048 -1.25873,0.91471 -1.51135,1.41659 -2.06688,1.06767 -1.13748,-0.71442 0.69848,-1.33931 3.25203,-4.38459 3.67764,-4.38585 0.20979,-6e-4 0.53521,-0.33861 0.72316,-0.75111 0.18795,-0.4125 0.49543,-0.75 0.6833,-0.75 0.51896,0 1.17867,-2.04808 0.80481,-2.49855 -0.42176,-0.50818 -0.29899,-2.96219 0.17248,-3.44788 0.21165,-0.21803 0.38482,-0.58928 0.38482,-0.825 0,-0.23571 0.20674,-0.42857 0.45941,-0.42857 0.25269,0 0.5428,-0.23625 0.64471,-0.525 0.28374,-0.80397 1.34605,-1.875 1.85971,-1.875 0.67065,0 6.63414,-3.09392 6.64755,-3.44882 0.006,-0.16565 0.52211,-0.65396 1.14634,-1.08513 1.93044,-1.33341 2.547,-3.45145 2.08602,-7.16605 -0.18982,-1.52952 -0.56969,-2.7 -0.87627,-2.7 -0.14711,0 -0.26747,-0.675 -0.26747,-1.5 0,-0.825 0.13076,-1.5 0.29058,-1.5 0.15982,0 0.21812,-0.18884 0.12955,-0.41965 -0.0886,-0.23081 -0.0168,-0.50878 0.15942,-0.61771 0.17624,-0.10892 0.32045,-0.45337 0.32045,-0.76544 0,-0.31206 0.18212,-0.67534 0.40471,-0.80729 0.40237,-0.23851 1.04358,-1.28559 1.7561,-2.86764 0.20504,-0.45525 0.50144,-0.78485 0.65867,-0.73244 0.15723,0.0524 0.74099,-0.40847 1.29724,-1.02418 1.00141,-1.10843 4.48417,-3.16475 4.80935,-2.83957 0.0928,0.0928 0.3553,0.0139 0.58333,-0.17538 0.36996,-0.30703 2.4826,-0.80396 4.15575,-0.9775 0.33833,-0.0351 0.74333,-0.12951 0.89999,-0.2098 0.15667,-0.0803 1.01798,-0.18071 1.91401,-0.22313 0.89604,-0.0424 1.87758,-0.21007 2.1812,-0.37257 0.30362,-0.16249 0.65167,-0.23387 0.77344,-0.15861 0.12177,0.0753 0.82773,0.01 1.5688,-0.14502 0.74107,-0.15502 1.90608,-0.3347 2.5889,-0.39931 1.67508,-0.15848 6.26048,-2.64233 7.82314,-4.23767 0.36555,-0.3732 0.90555,-0.85986 1.2,-1.08147 0.29445,-0.2216 0.70135,-0.69877 0.90422,-1.06036 0.50738,-0.90434 0.14631,-1.06992 -2.60106,-1.19278 -3.5337,-0.15802 -5.00639,-0.29319 -8.7178,-0.80017 -1.8975,-0.2592 -5.4075,-0.60417 -7.8,-0.76661 -5.89408,-0.40018 -7.88466,-0.63422 -8.30465,-0.97642 -0.48126,-0.39212 -7.6594,-0.37648 -9.63519,0.021 -0.87442,0.17591 -1.68442,0.29867 -1.8,0.27279 -0.11558,-0.0259 -0.95265,0.0502 -1.86015,0.16911 -0.9075,0.11889 -3.135,0.26428 -4.95,0.3231 -3.33111,0.10795 -4.08814,0.29423 -6.92353,1.70361 -1.34411,0.66811 -3.23952,1.16837 -5.8969,1.55638 -0.45124,0.0659 -1.86874,-0.0756 -3.15,-0.31438 -1.28126,-0.2388 -2.80207,-0.45757 -3.37957,-0.48615 -0.5775,-0.0286 -1.185,-0.13591 -1.35,-0.23851 -0.165,-0.1026 -1.1775,-0.0485 -2.25,0.12029 -1.07249,0.16877 -2.41338,0.28623 -2.97974,0.26104 -0.56636,-0.0252 -1.11296,0.0888 -1.21466,0.2534 -0.19118,0.30933 -5.86763,0.54701 -6.15685,0.25779 -0.39807,-0.39807 0.29312,-1.05286 1.80257,-1.70762 1.58159,-0.68605 3.14869,-1.7906 3.14869,-2.21931 0,-0.37108 3.03174,-3.22181 3.42639,-3.22181 0.20999,0 0.6543,-0.23625 0.98735,-0.525 0.33305,-0.28875 2.00745,-0.9766 3.7209,-1.52855 1.71344,-0.55195 3.31785,-1.12653 3.56535,-1.27685 0.2475,-0.15031 0.88875,-0.49997 1.425,-0.77701 0.53625,-0.27704 0.975,-0.69085 0.975,-0.91958 0,-0.55479 0.74426,-1.27301 1.31916,-1.27301 0.28626,0 0.39669,-0.17022 0.2903,-0.44747 -0.098,-0.25549 0.0347,-0.52669 0.30942,-0.6321 0.26462,-0.10154 0.48112,-0.36572 0.48112,-0.58707 0,-0.22134 0.33497,-0.76388 0.74438,-1.20564 0.40941,-0.44176 0.66913,-0.92496 0.57716,-1.07376 -0.092,-0.14881 0.28182,-0.67078 0.83063,-1.15993 0.5488,-0.48915 1.21166,-1.09291 1.473,-1.3417 0.26134,-0.24878 0.63259,-0.45233 0.825,-0.45233 0.19241,0 0.34983,-0.14944 0.34983,-0.33209 0,-0.18266 0.1986,-0.25589 0.44132,-0.16275 0.24272,0.0931 0.63769,-0.027 0.87771,-0.26704 0.24001,-0.24002 0.64892,-0.35484 0.90868,-0.25516 0.25976,0.0997 0.47229,0.0318 0.47229,-0.15086 0,-0.18265 0.1441,-0.3321 0.32022,-0.3321 0.18369,0 0.23902,0.25581 0.12978,0.6 -0.13514,0.4258 -0.0539,0.6 0.27978,0.6 0.25862,0 0.47022,0.2025 0.47022,0.45 0,0.2475 0.11813,0.45 0.2625,0.45 0.27535,0 0.66799,1.37322 0.79345,2.775 0.0406,0.45375 -0.0252,0.825 -0.14629,0.825 -0.12108,0 -0.0756,0.46163 0.10095,1.02584 0.5566,1.77831 3.80424,2.84269 5.07144,1.6621 0.3471,-0.32336 0.80813,-0.58794 1.02452,-0.58794 0.21638,0 0.39343,-0.135 0.39343,-0.3 0,-0.165 0.1934,-0.3 0.42978,-0.3 0.23638,0 0.51165,-0.25792 0.6117,-0.57316 0.10006,-0.31524 0.51845,-0.79367 0.92978,-1.06318 0.41132,-0.26951 0.66914,-0.61738 0.57293,-0.77305 -0.0962,-0.15567 -0.0377,-0.45349 0.13001,-0.66182 0.16771,-0.20833 0.71463,-0.86911 1.21536,-1.46839 0.50074,-0.59928 0.91044,-1.29699 0.91044,-1.55047 0,-0.78691 0.34559,-1.40993 0.7821,-1.40993 0.22984,0 0.4179,-0.2025 0.4179,-0.45 0,-0.2475 0.21047,-0.45 0.4677,-0.45 0.25724,0 0.38353,-0.1362 0.28064,-0.30268 -0.28817,-0.46627 0.14005,-1.49732 0.62187,-1.49732 0.23638,0 0.42979,-0.13236 0.42979,-0.29414 0,-0.16177 0.405,-0.24698 0.9,-0.18935 0.64078,0.0746 0.9,-0.0227 0.9,-0.33795 0,-0.2703 0.17527,-0.37549 0.45,-0.27007 0.2475,0.095 0.45,0.0262 0.45,-0.15289 0,-0.17907 0.26352,-0.25666 0.58561,-0.17243 0.32209,0.0842 0.64931,-0.001 0.72716,-0.19001 0.0979,-0.23743 0.23263,-0.21262 0.43716,0.0805 0.25181,0.36087 0.36633,0.35293 0.77284,-0.0536 0.26247,-0.26248 0.47723,-0.63651 0.47723,-0.83118 0,-0.22774 0.26742,-0.28683 0.75,-0.16571 0.42325,0.10623 0.75,0.0583 0.75,-0.10998 0,-0.29065 2.38455,-1.51322 2.95144,-1.51322 0.1564,0 0.36756,-0.21681 0.46925,-0.48182 0.13163,-0.343 0.40017,-0.42779 0.9321,-0.29428 0.41096,0.10314 0.74721,0.0584 0.74721,-0.0995 0,-0.32044 0.035,-0.32397 3.59999,-0.36253 2.01888,-0.0218 3.20609,0.16418 5.7,0.89309 2.61295,0.7637 7.73493,1.84508 8.7393,1.84508 0.71914,0 0.0943,-1.4119 -1.25742,-2.84111 -1.2785,-1.35182 -6.13782,-4.65889 -6.84565,-4.65889 -0.45759,0 -2.79762,-1.91621 -3.07566,-2.5186 -0.16029,-0.34727 -0.61649,-1.1714 -1.01378,-1.8314 -0.72949,-1.21186 -1.37966,-2.37209 -2.47722,-4.4206 -0.93815,-1.75097 -6.13511,-7.09176 -9.66956,-9.93716 -1.0725,-0.86341 -2.76,-1.94336 -3.75,-2.39989 -0.99,-0.45653 -2.0025,-0.95689 -2.25,-1.11191 -0.2475,-0.15503 -0.77094,-0.41974 -1.16319,-0.58824 -0.39225,-0.16851 -1.67475,-0.76202 -2.85,-1.3189 -1.17525,-0.55688 -2.47431,-1.11312 -2.88681,-1.23607 -0.4125,-0.12296 -1.155,-0.51473 -1.65,-0.87061 -0.495,-0.35588 -1.305,-0.83949 -1.8,-1.07469 -0.93927,-0.4463 -3.33429,-2.70611 -3.96581,-3.74192 -1.60867,-2.63852 -2.28847,-5.81904 -1.46519,-6.85504 0.47154,-0.59337 1.081,-0.4396 1.081,0.27275 0,0.23776 0.17816,0.43229 0.3959,0.43229 0.42139,0 1.83591,1.46819 1.6213,1.6828 -0.17581,0.17581 2.7488,3.1172 3.09941,3.1172 0.15587,0 0.28339,0.12558 0.28339,0.27906 0,0.73694 5.62607,2.87615 9.6,3.65024 2.42196,0.47177 5.17581,1.22159 9.45,2.57305 5.71208,1.8061 5.6642,1.79386 8.54999,2.1869 1.4025,0.19102 3.38535,0.46383 4.40634,0.60624 1.80544,0.25184 3.68669,1.23629 3.69949,1.93592 0.0266,1.45277 0.91427,6.23725 1.29314,6.96989 0.65278,1.26234 2.03123,1.83253 5.17494,2.1406 3.06008,0.29988 3.23964,0.20185 2.91584,-1.59191 -0.26878,-1.48894 -0.29414,-5.90583 -0.0499,-8.69999 0.21522,-2.46276 1.14825,-6.45 1.50932,-6.45 0.13798,0 0.25088,-0.7425 0.25088,-1.65 0,-1.30975 -0.0986,-1.65 -0.47809,-1.65 -0.26294,0 -0.54624,-0.26066 -0.62956,-0.57924 -0.0901,-0.34441 -0.32192,-0.51384 -0.57191,-0.4179 -0.23124,0.0887 -0.42044,0.0119 -0.42044,-0.17076 0,-0.18266 -0.31658,-0.3321 -0.7035,-0.3321 -0.38693,0 -0.94785,-0.27 -1.2465,-0.6 -0.29865,-0.33 -0.66517,-0.6 -0.81451,-0.6 -0.69772,0 -3.21605,-1.98173 -3.38777,-2.6659 -0.10338,-0.41187 -0.49913,-1.02679 -0.87946,-1.36648 -0.92327,-0.82463 -1.32448,-3.85426 -0.6056,-4.57313 0.25951,-0.25952 0.39201,-0.6799 0.29443,-0.93419 -0.0976,-0.25428 -0.0282,-0.55454 0.15416,-0.66725 0.33401,-0.20643 0.43011,-0.80077 0.75074,-4.64305 0.29976,-3.5921 0.34308,-3.86771 0.80164,-5.1 0.2456,-0.66 0.388,-1.36875 0.31646,-1.57499 -0.0716,-0.20625 0.004,-0.375 0.16683,-0.375 0.1633,0 0.2263,-0.27 0.14001,-0.6 -0.0952,-0.36417 -0.009,-0.6 0.21886,-0.6 0.27276,0 0.32505,-0.37005 0.19073,-1.35 -0.12158,-0.88702 -0.073,-1.35 0.14174,-1.35 0.41135,0 0.0725,-1.47214 -0.48342,-2.1 -0.21913,-0.2475 -0.4411,-0.9225 -0.49327,-1.5 -0.12383,-1.37059 0.29821,-3.9 0.65072,-3.9 0.15153,0 0.53937,-0.5172 0.86186,-1.14933 0.53507,-1.04883 2.33712,-2.74329 2.93083,-2.75585 0.13476,-0.003 0.56294,-0.34035 0.95151,-0.75 0.38857,-0.40965 0.86151,-0.74482 1.05097,-0.74482 0.42792,0 1.99254,-1.62785 1.99254,-2.07306 0,-0.17982 0.20056,-0.32694 0.44568,-0.32694 0.27785,0 0.57369,-0.50836 0.78562,-1.35 0.18696,-0.7425 0.43338,-1.35 0.5476,-1.35 0.26512,0 0.86858,2.40611 1.08957,4.3443 0.0937,0.82186 0.33038,1.59431 0.52595,1.71654 0.24688,0.15431 0.14554,0.37018 -0.33154,0.70621 -0.48316,0.3403 -0.63102,0.66073 -0.49811,1.0795 0.14008,0.44135 0.0267,0.638 -0.43787,0.75949 -0.63303,0.16554 -0.88195,0.69396 -0.3269,0.69396 0.47313,0 0.34947,0.89985 -0.15,1.09151 -0.2475,0.095 -0.45,0.46257 -0.45,0.81688 0,0.67519 1.11426,3.93805 1.93673,5.67127 0.30073,0.63374 0.52993,2.12984 0.61156,3.99198 0.1684,3.84116 0.60827,5.7424 1.38568,5.98914 0.41838,0.13278 0.5377,0.35585 0.40835,0.76341 -0.12591,0.39672 -0.0398,0.5758 0.27691,0.5758 0.25281,0 0.60416,0.27 0.78077,0.6 0.17661,0.33 0.50967,0.6 0.74013,0.6 0.23046,0 0.7074,0.405 1.05987,0.9 0.35247,0.495 0.83981,0.9 1.08297,0.9 0.24316,0 0.73193,0.27 1.08614,0.6 0.35421,0.33 0.82107,0.6 1.03746,0.6 0.21638,0 0.39343,0.13163 0.39343,0.29251 0,0.49866 2.39924,1.39987 5.98978,2.24991 1.89188,0.44789 4.21678,1.20658 5.16644,1.68596 0.94967,0.4794 1.87299,0.87162 2.05183,0.87162 0.17885,0 1.12493,0.8148 2.10241,1.81067 2.07228,2.11124 3.74461,5.3087 4.06888,7.77956 l 0.21526,1.64023 0.45712,-0.96523 c 0.26785,-0.56556 0.68303,-0.96523 1.0027,-0.96523 0.30007,0 0.54557,-0.14539 0.54557,-0.32308 0,-0.17769 0.37125,-0.70013 0.825,-1.16098 1.31078,-1.33127 2.175,-2.39859 2.175,-2.68613 0,-0.14609 0.2025,-0.34332 0.45,-0.4383 0.2475,-0.095 0.45,-0.37942 0.45,-0.6321 0,-0.25267 0.11706,-0.45941 0.26014,-0.45941 0.14307,0 0.60923,-0.52752 1.0359,-1.17227 1.01945,-1.54049 2.22404,-2.72773 2.7676,-2.72773 0.24,0 0.43636,-0.26743 0.43636,-0.59428 0,-0.38371 0.26576,-0.66099 0.75,-0.78253 0.4125,-0.10353 0.75,-0.29396 0.75,-0.42319 0,-0.12922 0.30375,-0.31664 0.675,-0.41649 0.37125,-0.0998 1.17104,-0.62072 1.77731,-1.15752 0.60627,-0.53679 1.51752,-1.29493 2.025,-1.68476 0.50748,-0.38982 0.92269,-0.86359 0.92269,-1.05283 0,-0.18924 0.27,-0.51269 0.6,-0.71878 0.33,-0.20608 0.6,-0.58176 0.6,-0.83482 0,-0.25307 0.1375,-0.62317 0.30556,-0.82246 1.21979,-1.44644 1.49444,-1.85227 1.49444,-2.20824 0,-0.22225 0.135,-0.4041 0.3,-0.4041 0.165,0 0.3,-0.243 0.3,-0.54 0,-0.297 0.15827,-0.69827 0.35171,-0.89171 0.19344,-0.19344 0.38953,-0.65919 0.43576,-1.035 0.0462,-0.37581 0.16976,-1.0981 0.27453,-1.60511 0.12109,-0.58598 0.0135,-1.2964 -0.29531,-1.95 -0.89955,-1.90388 -1.99575,-3.683 -2.5832,-4.19249 -0.32092,-0.27833 -0.58349,-0.64988 -0.58349,-0.82566 0,-0.17577 -0.27743,-0.40764 -0.61651,-0.51526 -0.33909,-0.10763 -0.56573,-0.34804 -0.50365,-0.53427 0.0621,-0.18622 -0.20255,-0.63089 -0.58804,-0.98816 -0.40715,-0.37733 -0.62748,-0.84087 -0.52572,-1.10605 0.11997,-0.31265 0.003,-0.44228 -0.37031,-0.41139 -0.36371,0.0301 -0.57932,-0.19388 -0.64702,-0.67212 -0.0761,-0.53762 0.0115,-0.67383 0.35003,-0.54394 0.2559,0.0982 0.52842,-0.027 0.62892,-0.2889 0.0976,-0.25437 0.37438,-0.38658 0.61554,-0.29404 0.27525,0.10562 0.633,-0.16167 0.96215,-0.71887 0.56876,-0.96283 1.17191,-1.21206 0.87612,-0.36202 -0.12757,0.36659 -0.004,0.31442 0.40952,-0.17289 0.32571,-0.38383 0.73193,-0.61153 0.90271,-0.50598 0.17077,0.10554 0.39149,-0.0192 0.49047,-0.27712 0.10439,-0.27201 0.53553,-0.46901 1.02646,-0.46901 0.46556,0 1.05492,-0.20845 1.30969,-0.46321 0.25476,-0.25477 0.88641,-0.51678 1.40366,-0.58224 0.51724,-0.0655 0.95969,-0.16076 0.98321,-0.21178 0.0235,-0.051 0.20665,-0.38689 0.40695,-0.74638 0.28558,-0.51253 0.28558,-0.68684 0,-0.80759 -0.25208,-0.10658 -0.20258,-0.25627 0.16082,-0.4863 0.28875,-0.18277 0.525,-0.57908 0.525,-0.88067 0,-0.3016 0.2025,-0.71642 0.45,-0.92183 0.2475,-0.20541 0.45,-0.51267 0.45,-0.68281 0,-0.44043 2.36297,-2.56522 3.1177,-2.80344 0.34776,-0.10977 0.8348,-0.41652 1.0823,-0.68166 0.49952,-0.53515 2.42407,-1.30802 2.66275,-1.06933 0.0838,0.0838 -0.009,0.59726 -0.20521,1.14108 -0.19665,0.54382 -0.35754,1.28293 -0.35754,1.64246 0,0.35954 -0.10125,0.6539 -0.225,0.65414 -0.42603,8.4e-4 -0.40588,2.46767 0.0242,2.96467 0.23078,0.26669 0.50059,1.01397 0.59957,1.66061 0.099,0.64665 0.30456,1.25415 0.45686,1.35 0.38763,0.24395 1.3279,2.42341 1.43239,3.3201 0.0478,0.4102 0.22754,0.7927 0.39943,0.85 0.17189,0.0573 0.31253,0.30213 0.31253,0.54408 0,0.24194 0.22911,0.87194 0.50914,1.4 0.53028,0.99995 0.59245,3.95517 0.0958,4.55469 -0.13914,0.16797 -0.18904,1.25041 -0.11087,2.40541 0.33015,4.87843 0.30417,6.66285 -0.12014,8.24999 -0.61273,2.2919 -1.50757,4.272 -2.39011,5.28876 -2.53378,2.91917 -3.35555,4.47393 -4.19438,7.93565 -0.45653,1.88408 -0.91529,3.49309 -1.01946,3.57559 -0.10417,0.0825 -0.4756,0.71459 -0.82541,1.40464 -0.34981,0.69006 -0.77294,1.33928 -0.9403,1.44271 -0.16736,0.10343 -0.30429,0.40124 -0.30429,0.6618 0,0.26056 -0.50625,1.04123 -1.125,1.73482 -1.09044,1.22233 -1.81716,2.11482 -3.58124,4.39813 -1.12979,1.46231 -2.62536,3.95111 -2.54909,4.24196 0.0338,0.12873 -0.1371,0.61786 -0.37968,1.08696 -0.47379,0.9162 -0.36074,1.28526 0.31434,1.02621 0.23137,-0.0888 0.42067,-0.012 0.42067,0.17067 0,0.18265 -0.1575,0.33209 -0.35,0.33209 -0.1925,0 -0.27932,0.0707 -0.19293,0.15707 0.31218,0.31218 1.10108,-0.21707 0.94189,-0.63189 -0.0897,-0.23385 -0.025,-0.42518 0.14395,-0.42518 0.1689,0 0.35977,0.15804 0.42416,0.35119 0.13188,0.39565 2.03293,-0.58433 2.03293,-1.04797 0,-0.14707 0.22546,-0.18089 0.50102,-0.0752 0.27556,0.10574 0.57931,0.0667 0.675,-0.0868 0.0957,-0.15347 1.18648,-0.80996 2.42398,-1.45888 l 2.25,-1.17985 4.8,0.0927 c 4.9114,0.0949 8.41726,-0.25223 9.75,-0.96533 0.78543,-0.42025 3.71022,-1.43035 5.25,-1.81313 1.07578,-0.26742 3.30713,-0.18336 4.35,0.16388 0.4125,0.13735 1.3575,0.42403 2.1,0.63705 0.7425,0.21303 1.62,0.60609 1.95,0.87346 0.33,0.26738 1.005,0.67667 1.5,0.90953 0.495,0.23287 1.1025,0.58587 1.35,0.78444 0.2475,0.19858 1.19532,0.57624 2.10627,0.83925 2.0569,0.59387 4.68343,0.39876 6.58094,-0.48887 0.74953,-0.35062 1.63278,-0.6719 1.96278,-0.71394 0.33,-0.042 1.005,-0.28827 1.5,-0.54718 0.495,-0.2589 1.07748,-0.47156 1.29439,-0.47258 0.67542,-0.003 3.47055,-1.28786 4.21042,-1.93519 1.70386,-1.49075 2.68597,-2.6719 2.53935,-3.05398 -0.0871,-0.22697 -0.009,-0.41267 0.17375,-0.41267 0.18266,0 0.3321,-0.2025 0.3321,-0.45 0,-0.2475 0.12313,-0.45 0.27363,-0.45 0.1505,0 0.36308,-0.52943 0.4724,-1.1765 0.10932,-0.64708 0.39119,-1.25034 0.62637,-1.34059 0.23518,-0.0902 0.43252,-0.33707 0.43853,-0.5485 0.0205,-0.71984 2.14153,-2.00271 4.59323,-2.77809 1.34521,-0.42544 2.89469,-0.91704 3.4433,-1.09246 0.5486,-0.17542 1.07092,-0.24548 1.16071,-0.15569 0.0898,0.0898 0.35933,-0.0328 0.59897,-0.27246 0.23964,-0.23964 0.69607,-0.43571 1.01428,-0.43571 0.32782,0 0.57857,-0.20586 0.57857,-0.475 0,-0.50217 0.64162,-0.45015 0.81366,0.066 0.0556,0.16691 -0.23967,0.80572 -0.65625,1.41957 -0.41657,0.61386 -0.7574,1.24254 -0.7574,1.39707 0,0.15452 -0.3375,0.36566 -0.75,0.4692 -0.4125,0.10353 -0.75,0.31474 -0.75,0.46935 0,0.15461 -0.3375,0.61861 -0.75,1.03111 -0.4125,0.4125 -0.75,1.01386 -0.75,1.33636 0,0.3225 -0.12785,0.58637 -0.28411,0.58637 -0.15626,0 -0.26257,0.54 -0.23625,1.2 0.0263,0.66 0.16861,1.2 0.3162,1.2 0.14759,0 0.18585,0.21499 0.085,0.47776 -0.12324,0.32116 0.0193,0.53075 0.43487,0.63943 0.36702,0.096 0.55419,0.32849 0.46066,0.57223 -0.10153,0.26458 0.0596,0.41058 0.45325,0.41058 0.47428,0 0.56823,0.13411 0.42037,0.6 -0.10474,0.33 -0.0735,0.6 0.0695,0.6 0.14298,0 0.42207,0.44833 0.62022,0.9963 0.40153,1.11042 0.48398,2.9037 0.1335,2.9037 -0.12472,0 -0.42075,0.43875 -0.65785,0.975 -0.54682,1.23676 -3.16355,3.80328 -4.27148,4.1895 -0.46415,0.16181 -0.8439,0.40412 -0.8439,0.53847 0,0.13436 -0.5393,0.3354 -1.19843,0.44676 -0.65914,0.11136 -1.27461,0.32573 -1.36771,0.47637 -0.0931,0.15064 -0.57518,0.27389 -1.07129,0.27389 -0.49611,0 -1.12939,0.12025 -1.40729,0.26722 -0.27791,0.14698 -1.85528,0.33163 -3.50528,0.41035 -1.65,0.0787 -3.405,0.31833 -3.9,0.53246 -2.30102,0.9954 -4.56846,1.3715 -8.17425,1.35589 -2.02084,-0.009 -3.67459,0.0674 -3.675,0.16935 -3e-4,0.10189 -0.50916,0.15658 -1.13055,0.12152 -0.62139,-0.0351 -2.14014,0.18505 -3.375,0.48913 -1.23486,0.30408 -2.6166,0.61084 -3.07054,0.68168 -0.45394,0.0708 -1.25092,0.34111 -1.77109,0.6006 -0.52016,0.25949 -1.19501,0.4718 -1.49966,0.4718 -0.30465,0 -0.55391,0.13834 -0.55391,0.30743 0,0.16908 -0.3375,0.43574 -0.75,0.59257 -0.4125,0.15683 -0.75,0.47128 -0.75,0.69877 0,0.22749 -0.3375,0.77779 -0.75,1.22288 -0.4125,0.4451 -0.75,0.89293 -0.75,0.99519 0,0.10225 -0.18764,0.39905 -0.41698,0.65954 -0.22934,0.26049 -0.71808,1.21612 -1.0861,2.12362 -0.36802,0.9075 -0.99038,2.33846 -1.38302,3.1799 -1.22798,2.6316 -0.87888,3.53299 1.18406,3.05729 2.20438,-0.50832 4.82504,0.002 8.18243,1.59472 1.00672,0.47745 1.99839,0.86809 2.20371,0.86809 0.20533,0 0.73166,0.19041 1.16962,0.42313 0.43795,0.23273 1.33628,0.6483 1.99628,0.92349 0.66,0.27519 2.3475,1.08283 3.75,1.79475 3.49593,1.77457 7.54977,3.15875 9.2489,3.15803 0.77061,-3e-4 3.35087,-0.20614 5.73392,-0.45735 2.38305,-0.25122 6.01914,-0.46474 8.08021,-0.47448 2.06107,-0.01 4.73872,-0.19009 5.95033,-0.40079 1.91281,-0.33263 2.60684,-0.31423 5.26979,0.1397 3.12629,0.53291 6.2866,1.55668 6.46684,2.09491 0.055,0.16423 0.29549,0.29861 0.53442,0.29861 0.23893,0 0.50961,0.19597 0.60153,0.43549 0.0919,0.23952 0.66142,0.59678 1.26558,0.79392 0.60416,0.19713 1.77347,0.67537 2.59847,1.06276 1.99312,0.93588 2.54064,0.99887 10.02565,1.15353 4.38528,0.0906 6.49328,0.24223 6.63868,0.47748 0.15659,0.25337 0.24605,0.24567 0.33762,-0.029 0.16823,-0.50469 1.15987,-0.16322 2.23636,0.77009 0.72372,0.62746 0.78964,0.79391 0.41169,1.03956 -0.42628,0.27705 -1.27606,0.26193 -6.6,-0.11747 -1.2375,-0.0882 -4.3425,-0.23252 -6.9,-0.32075 -4.168,-0.14378 -5.58419,-0.33174 -10.51406,-1.39545 -1.62699,-0.35106 -4.82899,-0.10914 -6.11475,0.46199 -2.94222,1.30692 -4.53894,2.07045 -4.67119,2.23369 -0.45598,0.56286 -5.39333,2.4342 -6.42239,2.4342 -0.64732,0 -2.20133,-0.39575 -4.9776,-1.2676 -2.32372,-0.72975 -5.04999,-1.06088 -7.5,-0.91095 -4.51535,0.27631 -5.2703,0.20225 -10.5,-1.03001 -2.5887,-0.60997 -7.31259,-0.69884 -7.8635,-0.14793 -0.19607,0.19607 -0.55229,0.35649 -0.7916,0.35649 -0.60329,0 -3.54308,1.46584 -3.96898,1.97902 -0.19216,0.23154 -0.48076,0.42098 -0.64134,0.42098 -0.16058,0 -0.68431,0.27938 -1.16385,0.62085 -0.7562,0.53846 -0.81495,0.67779 -0.44274,1.05 0.23604,0.23603 0.63333,0.42915 0.88288,0.42915 0.24955,0 0.52753,0.11943 0.61774,0.26539 0.0902,0.14596 0.77003,0.35626 1.51071,0.46733 0.74068,0.11107 1.42531,0.32915 1.5214,0.48462 0.0961,0.15546 0.43673,0.28266 0.75699,0.28266 0.32026,0 0.58229,0.20136 0.58229,0.44746 0,0.2461 0.27157,0.61706 0.60349,0.82434 0.33192,0.20729 0.96634,0.95093 1.40982,1.65254 0.44349,0.70161 0.91442,1.27566 1.04651,1.27566 0.1321,0 0.24018,0.14558 0.24018,0.32351 0,0.5766 2.80874,3.01835 4.35,3.78163 0.825,0.40856 1.8375,0.93451 2.25,1.16877 0.4125,0.23426 2.01699,0.91328 3.56554,1.50893 2.83492,1.09046 4.82339,2.36354 6.48446,4.15156 1.30807,1.40804 3.1228,2.46038 5.76944,3.34564 1.28181,0.42874 3.01858,1.10362 3.8595,1.49974 0.84092,0.39612 1.63823,0.72022 1.7718,0.72022 0.22327,0 1.812,1.60715 2.82294,2.85565 0.64449,0.79596 1.27412,2.82204 1.39666,4.49435 0.0605,0.82499 0.16956,2.35394 0.24244,3.39765 0.0729,1.04371 0.21233,1.97746 0.30987,2.07499 0.0975,0.0975 0.17735,0.69485 0.17735,1.32735 0,0.82223 0.12826,1.15 0.45,1.15 0.2475,0 0.45,0.19156 0.45,0.42569 0,0.23413 0.1874,0.80788 0.41644,1.275 1.07021,2.18263 1.98355,4.23146 1.98355,4.44958 0,0.48135 2.51524,5.54973 2.75412,5.54973 0.13524,0 0.24588,0.19351 0.24588,0.43001 0,0.23651 0.59041,1.01276 1.31202,1.725 1.38498,1.367 1.98798,2.29981 1.98798,3.07527 0,0.52138 -1.05335,0.6497 -1.35302,0.16483 -0.10364,-0.1677 -0.32698,-0.21927 -0.49631,-0.11462 -0.88733,0.5484 -5.40643,-2.79913 -7.30066,-5.40797 -0.33,-0.4545 -0.87,-0.95504 -1.2,-1.11232 -0.57903,-0.27596 -1.35465,-0.72329 -2.20861,-1.27376 -0.40432,-0.26063 -3.03662,-0.5927 -4.60111,-0.58044 -0.44535,0.004 -0.87987,-0.17643 -0.96559,-0.39983 -0.0857,-0.22339 -0.41885,-0.40617 -0.74028,-0.40617 -0.32143,0 -0.62941,-0.10125 -0.68441,-0.225 -0.055,-0.12375 -0.83711,-0.62011 -1.73803,-1.10303 -1.49734,-0.80261 -2.11806,-1.34249 -4.15194,-3.61121 -0.37947,-0.4233 -0.60871,-0.90109 -0.50941,-1.06176 0.10203,-0.1651 -0.0219,-0.21444 -0.28504,-0.11347 -0.25607,0.0983 -0.46558,0.0292 -0.46558,-0.15344 0,-0.18265 0.14928,-0.3321 0.33173,-0.3321 0.18244,0 -0.0876,-0.39166 -0.6,-0.87036 -1.10996,-1.03686 -1.14976,-1.22815 -0.25673,-1.23423 0.52701,-0.004 0.57948,-0.065 0.23932,-0.2802 -0.23962,-0.15159 -0.55054,-0.20463 -0.69092,-0.11787 -0.14039,0.0868 -0.50016,-0.12464 -0.79951,-0.46979 -0.29935,-0.34515 -0.62968,-0.62755 -0.73408,-0.62755 -0.43183,0 -1.42459,-1.27665 -1.28191,-1.64847 0.0849,-0.22115 -0.2422,-0.81698 -0.7268,-1.32408 -0.48461,-0.50709 -0.8811,-1.04454 -0.8811,-1.19432 0,-0.14979 -0.65829,-0.94464 -1.46286,-1.76632 -0.80458,-0.82169 -1.51333,-1.6206 -1.575,-1.77536 -0.0617,-0.15476 -0.92214,-0.99813 -1.91214,-1.87415 -0.99,-0.87602 -2.29423,-2.04828 -2.8983,-2.60502 -0.60407,-0.55675 -1.24414,-1.01227 -1.42239,-1.01227 -0.17825,0 -0.71113,-0.405 -1.18418,-0.9 -0.47305,-0.495 -1.01422,-0.9 -1.20261,-0.9 -0.18838,0 -0.34252,-0.12591 -0.34252,-0.27978 0,-0.15389 -0.27,-0.36548 -0.6,-0.47022 -0.33,-0.10474 -0.6,-0.3352 -0.6,-0.51215 0,-0.48564 -0.84439,-1.07199 -3,-2.0832 -2.64728,-1.24185 -5.29295,-1.16304 -8.37223,0.24943 -0.56224,0.2579 -2.75599,0.81318 -4.875,1.23396 -2.11902,0.42077 -3.85276,0.8902 -3.85276,1.04317 0,0.73677 -1.70403,3.66096 -2.85,4.89072 -0.165,0.17707 -0.705,0.83354 -1.2,1.45884 -0.495,0.6253 -1.11889,1.39231 -1.38641,1.70447 -0.80437,0.93859 -1.76359,5.61425 -1.76359,8.59656 0,1.86772 0.97168,5.16819 1.52155,5.16819 0.15315,0 0.27845,0.14943 0.27845,0.33205 0,0.46411 2.28302,3.28492 2.49063,3.07732 0.0933,-0.0933 0.45178,0.0931 0.79654,0.4143 0.92389,0.86073 3.32744,1.28988 8.73368,1.55937 2.85869,0.14251 4.96034,0.37816 5.16087,0.57868 0.18605,0.18606 0.52342,0.33828 0.7497,0.33828 1.22329,0 1.64184,1.66912 1.73023,6.9 0.0684,4.05 -0.19338,5.73172 -1.02123,6.55957 -0.29036,0.29036 -0.47831,0.67679 -0.41766,0.85872 0.0606,0.18194 -0.14803,0.41277 -0.46372,0.51297 -0.31569,0.10019 -0.82937,0.75179 -1.14151,1.448 -0.31215,0.6962 -0.79004,1.48944 -1.06199,1.76274 -0.27195,0.2733 -0.58842,0.92474 -0.70327,1.44766 -0.11486,0.52291 -0.39777,1.31291 -0.6287,1.75554 -0.30632,0.58713 -0.42142,2.06242 -0.4256,5.4548 -0.005,3.71045 -0.12015,5.0137 -0.57205,6.45 -0.74825,2.3782 -1.27937,3.54721 -1.74461,3.83991 -0.20972,0.13195 -0.38338,0.60445 -0.38591,1.05 -0.002,0.44555 -0.11622,0.98608 -0.25265,1.20119 -0.33495,0.52809 0.12987,3.31553 0.654,3.92194 0.45202,0.52297 0.91701,2.43695 0.59205,2.43695 -0.10791,0 -0.63003,-0.43875 -1.16028,-0.975 -0.53024,-0.53625 -1.1092,-1.11 -1.28659,-1.275 -0.99514,-0.92566 -2.14193,-2.3135 -2.14193,-2.59216 0,-0.17682 -0.405,-0.83284 -0.9,-1.45783 -0.495,-0.62499 -0.9,-1.27852 -0.9,-1.4523 0,-0.17377 -0.30818,-0.89684 -0.68484,-1.60682 -0.37665,-0.70998 -0.71356,-1.83088 -0.74867,-2.49088 -0.10121,-1.90254 -0.74988,-4.95 -1.05363,-4.95 -0.15238,0 -0.20081,-0.19869 -0.10762,-0.44154 0.18852,-0.49128 -0.22061,-1.98757 -0.87629,-3.20475 -0.23592,-0.43796 -0.42895,-1.08591 -0.42895,-1.4399 0,-0.35398 -0.20143,-1.03312 -0.44761,-1.50919 -0.24618,-0.47606 -0.59785,-1.85311 -0.78148,-3.0601 -0.18363,-1.20699 -0.45098,-2.39702 -0.5941,-2.64452 -0.14312,-0.2475 -0.46679,-0.85704 -0.71926,-1.35453 -0.72583,-1.43025 -2.82971,-2.28442 -7.35755,-2.98715 -3.67571,-0.57048 -6.35168,-1.6365 -8.10838,-3.2301 -0.83184,-0.75461 -1.72425,-1.45329 -1.98315,-1.55265 -0.26372,-0.10119 -0.39601,-0.37532 -0.30083,-0.62336 0.0934,-0.2435 -0.0174,-0.81612 -0.24622,-1.27247 -0.22887,-0.45636 -0.58044,-1.39596 -0.78127,-2.08801 -0.22308,-0.76874 -0.75712,-1.5851 -1.37265,-2.09832 -0.55412,-0.46203 -1.0075,-1.00284 -1.0075,-1.20182 0,-0.19898 -0.17239,-0.46973 -0.38309,-0.60168 -0.2107,-0.13195 -0.8416,-0.84741 -1.402,-1.58991 -0.56041,-0.7425 -1.19141,-1.49505 -1.40222,-1.67233 -0.51196,-0.43051 -2.21148,-4.12974 -2.21728,-4.82619 -0.006,-0.76613 -0.4663,-1.41668 -0.83878,-1.18647 -0.17076,0.10553 -0.40423,0.62907 -0.51882,1.16343 -0.1146,0.53436 -0.28575,1.10161 -0.38034,1.26055 -0.0946,0.15895 -0.20282,0.69895 -0.24052,1.2 -0.10003,1.3294 -0.4115,4.60375 -0.58606,6.16101 -0.0832,0.7425 -0.33991,1.9575 -0.57039,2.7 -0.44863,1.44526 -0.81134,2.85348 -1.35221,5.25 -0.48646,2.1554 -0.79437,3.39549 -1.26849,5.10873 -0.5228,1.88916 -0.40457,3.95445 0.36376,6.354 0.9463,2.95536 0.63838,5.69445 -0.81887,7.28421 -0.37658,0.41081 -0.68469,0.83162 -0.68469,0.93513 0,0.35517 -2.27305,1.69238 -3.23646,1.90398 -0.52994,0.1164 -0.96353,0.3072 -0.96353,0.42401 0,0.28217 -5.46518,0.33881 -5.85,0.0606 -0.165,-0.11927 -1.11,-0.2434 -2.1,-0.27582 -0.99,-0.0324 -1.84023,-0.17646 -1.88939,-0.32006 -0.096,-0.28037 -1.31218,-0.0629 -1.56061,0.27904 -0.0825,0.11356 -0.71329,0.55924 -1.40174,0.9904 -0.68846,0.43115 -1.80766,1.32883 -2.48712,1.99484 -0.67946,0.66601 -1.36493,1.21092 -1.52326,1.21092 -0.15834,0 -0.28788,0.14711 -0.28788,0.32692 0,0.41133 -1.22433,1.44978 -1.725,1.4631 -0.20625,0.005 -0.375,0.20991 -0.375,0.45427 0,0.24435 -0.33923,0.52942 -0.75383,0.63348 -0.41461,0.10406 -0.87067,0.39798 -1.01348,0.65316 -0.14281,0.25518 -0.51833,0.48302 -0.8345,0.50631 -0.31617,0.0233 -0.90265,0.27194 -1.30328,0.55256 -0.40062,0.28061 -0.86712,0.51037 -1.03666,0.51057 -0.34349,3e-4 -1.68988,1.06073 -2.90614,2.28868 -1.20094,1.21249 -1.26999,3.23018 -0.13867,4.0524 0.14488,0.1053 0.18012,0.32626 0.0783,0.49101 -0.10182,0.16475 0.0378,0.48359 0.31032,0.70854 0.82887,0.68422 1.50358,2.71246 1.47496,4.43381 -0.0288,1.73231 -0.57231,2.38164 -0.90015,1.07542 z"
       id="path7106"
       inkscape:connector-curvature="0" />
  </g>
</svg>
