<?xml version="1.0" encoding="iso-8859-1"?>
<!-- Generator: Adobe Illustrator 19.0.0, SVG Export Plug-In . SVG Version: 6.00 Build 0)  -->
<svg version="1.1" id="Layer_1" xmlns="http://www.w3.org/2000/svg" xmlns:xlink="http://www.w3.org/1999/xlink" x="0px" y="0px"
	 viewBox="0 0 512 512" style="enable-background:new 0 0 512 512;" xml:space="preserve">
<path style="fill:#9ED368;" d="M0,256.006C0,397.402,114.606,512.004,255.996,512C397.394,512.004,512,397.402,512,256.006
	C512.009,114.61,397.394,0,255.996,0C114.606,0,0,114.614,0,256.006z"/>
<path style="fill:#8BC052;" d="M509.06,294.925L297.553,83.419c-0.667-0.669-1.463-1.203-2.349-1.573
	c-0.88-0.367-1.83-0.565-2.804-0.565H175.92c-4.025,0-7.28,3.26-7.28,7.28v36.4h-36.4c-4.025,0-7.28,3.26-7.28,7.28v291.2
	c0,2.444,1.282,4.499,3.129,5.821c0.467,0.654,76.084,76.271,76.738,76.738c0.3,0.419,0.698,0.731,1.069,1.069
	c16.205,3.216,32.95,4.933,50.1,4.932C384.162,512.003,490.315,417.845,509.06,294.925z"/>
<path style="fill:#F4F6F9;" d="M386.476,173.119c-0.37-0.885-0.905-1.683-1.573-2.351l-87.349-87.349
	c-0.667-0.669-1.463-1.203-2.349-1.573c-0.88-0.367-1.83-0.566-2.804-0.566H175.92c-4.023,0-7.28,3.26-7.28,7.28v36.4h-36.4
	c-4.023,0-7.28,3.26-7.28,7.28v291.2c0,4.02,3.257,7.28,7.28,7.28h203.84c4.025,0,7.28-3.26,7.28-7.28V387.04h36.4
	c4.023,0,7.28-3.26,7.28-7.28V175.92C387.04,174.948,386.843,173.999,386.476,173.119z M299.68,106.134l62.506,62.506H299.68
	V106.134z M328.8,416.16H139.52V139.52h29.12v240.24c0,4.02,3.257,7.28,7.28,7.28H328.8V416.16z M183.2,372.48V95.84h101.92v80.08
	c0,4.02,3.257,7.28,7.28,7.28h80.08v189.28H183.2z"/>
<g>
</g>
<g>
</g>
<g>
</g>
<g>
</g>
<g>
</g>
<g>
</g>
<g>
</g>
<g>
</g>
<g>
</g>
<g>
</g>
<g>
</g>
<g>
</g>
<g>
</g>
<g>
</g>
<g>
</g>
</svg>
