<?xml version="1.0" encoding="iso-8859-1"?>
<!-- Generator: Adobe Illustrator 19.0.0, SVG Export Plug-In . SVG Version: 6.00 Build 0)  -->
<svg version="1.1" id="Layer_1" xmlns="http://www.w3.org/2000/svg" xmlns:xlink="http://www.w3.org/1999/xlink" x="0px" y="0px"
	 viewBox="0 0 512 512" style="enable-background:new 0 0 512 512;" xml:space="preserve">
<circle style="fill:#6BC9EF;" cx="256" cy="256" r="256"/>
<path style="fill:#59B8DE;" d="M509.195,293.929c-16.493,110.969-104.174,198.699-215.119,215.242l-122.2-122.2l14.27-53.668
	L127.24,274.31L171.89,256l14.022-101.889l45.873-45.07l80.181,78.687l-0.124-4.398l-31.628-37.669l58.227-22.485L509.195,293.929z"
	/>
<g>
	<path style="fill:#F8F8F8;" d="M384.76,274.31c-7.45,0.42-13.034,1.507-16.79,3.336c-3.818,1.878-7.042,4.954-9.76,9.291
		c-2.656,4.324-4.596,9.748-5.733,16.271c-0.791,4.905-1.211,13.355-1.211,25.413c0,19.767-0.89,33.592-2.656,41.462
		c-1.767,7.833-5.053,14.146-9.859,18.89c-4.806,4.744-11.848,8.451-21.077,11.218c-6.214,1.828-16.012,2.767-29.367,2.767h-8.092
		v-36.631c10.959,0,18.099-0.667,21.497-2.076c3.336-1.359,5.844-3.348,7.4-5.955c1.631-2.607,2.409-6.993,2.459-13.244
		c0.049-6.214,0.469-18.112,1.198-35.631c0.519-10.65,1.878-19.1,4.126-25.512c2.236-6.363,5.214-11.799,8.92-16.222
		c3.756-4.435,8.5-8.302,14.294-11.687c-7.512-4.905-13.046-9.711-16.493-14.356c-4.794-6.721-8.08-15.283-9.81-25.71
		c-1.087-7.104-1.878-22.794-2.286-47.059c-0.111-7.61-0.778-12.725-2.088-15.283c-1.26-2.508-3.546-4.485-6.894-5.844
		c-3.336-1.408-10.736-2.088-22.325-2.088v-36.619h8.092c13.763,0,24.314,1.1,31.665,3.237c7.302,2.137,13.454,5.782,18.47,10.897
		c5.004,5.164,8.401,11.477,10.168,18.989c1.767,7.462,2.656,19.298,2.656,35.421c0,18.631,0.791,30.837,2.298,36.52
		c2.249,8.191,5.634,14.035,10.23,17.531c4.584,3.546,11.576,5.535,20.966,6.054V274.31z"/>
	<path style="fill:#F8F8F8;" d="M127.24,274.31V237.69c7.45-0.42,13.034-1.52,16.852-3.398c3.756-1.828,6.98-4.905,9.748-9.229
		c2.767-4.336,4.645-9.76,5.683-16.283c0.791-4.892,1.211-13.405,1.211-25.562c0-19.767,0.939-33.543,2.767-41.363
		c1.816-7.833,5.102-14.084,9.908-18.828c4.794-4.757,11.786-8.451,20.916-11.218c6.214-1.828,16.012-2.767,29.367-2.767h8.092
		v36.619c-11.379,0-18.631,0.63-21.855,1.927c-3.237,1.26-5.584,3.188-7.153,5.794c-1.507,2.607-2.298,7.042-2.298,13.355
		c0,6.412-0.408,18.618-1.248,36.52c-0.519,10.118-1.828,18.26-3.966,24.573c-2.137,6.251-4.855,11.416-8.191,15.493
		c-3.286,4.065-8.352,8.29-15.184,12.676c6.054,3.435,10.959,7.512,14.813,12.157c3.867,4.645,6.795,10.279,8.821,16.901
		c2.088,6.622,3.398,15.542,4.015,26.661c0.63,16.901,0.939,27.748,0.939,32.443c0,6.733,0.84,11.428,2.459,14.084
		c1.618,2.607,4.065,4.645,7.4,6.004c3.286,1.408,10.44,2.076,21.448,2.076v36.631h-8.092c-13.763,0-24.302-1.1-31.665-3.286
		c-7.302-2.199-13.504-5.844-18.52-10.959c-5.053-5.065-8.451-11.379-10.168-18.89c-1.717-7.45-2.607-19.298-2.607-35.421
		c0-18.73-0.84-30.936-2.459-36.52c-2.236-8.179-5.634-14.022-10.168-17.519C143.561,276.805,136.63,274.828,127.24,274.31z"/>
</g>
<g>
</g>
<g>
</g>
<g>
</g>
<g>
</g>
<g>
</g>
<g>
</g>
<g>
</g>
<g>
</g>
<g>
</g>
<g>
</g>
<g>
</g>
<g>
</g>
<g>
</g>
<g>
</g>
<g>
</g>
</svg>
