<?xml version="1.0" encoding="iso-8859-1"?>
<!-- Generator: Adobe Illustrator 19.0.0, SVG Export Plug-In . SVG Version: 6.00 Build 0)  -->
<svg version="1.1" id="Layer_1" xmlns="http://www.w3.org/2000/svg" xmlns:xlink="http://www.w3.org/1999/xlink" x="0px" y="0px"
	 viewBox="0 0 473.931 473.931" style="enable-background:new 0 0 473.931 473.931;" xml:space="preserve">
<circle style="fill:#B6E2EB;" cx="236.966" cy="236.966" r="236.966"/>
<path style="fill:#BFBEBE;" d="M263.397,177.408h26.656c2.615,0,4.745-2.125,4.745-4.741v-59.389c0-2.627-2.125-4.745-4.745-4.745
	h-26.656c-2.615,0-4.737,2.114-4.737,4.745v59.389C258.664,175.283,260.786,177.408,263.397,177.408z M310.488,98.296H172.735
	c0,0-12.591,91.542,4.456,91.542H306.75C323.793,189.838,310.488,98.296,310.488,98.296z"/>
<path style="fill:#357180;" d="M263.397,177.408h26.656c2.615,0,4.745-2.125,4.745-4.741v-59.389c0-2.627-2.125-4.745-4.745-4.745
	h-26.656c-2.615,0-4.737,2.114-4.737,4.745v59.389C258.664,175.283,260.786,177.408,263.397,177.408z M332.306,98.296h-21.818
	v79.512c0,6.559-5.313,11.873-11.876,11.873H184.596c-6.548,0-11.861-5.313-11.861-11.873V98.296h-32.561
	c-17.051,0-30.858,13.818-30.858,30.858v193.333c0,17.047,13.803,30.858,30.858,30.858h197.43c17.04,0,30.851-13.811,30.851-30.858
	V134.441L332.306,98.296z"/>
<path style="fill:#2F6E77;" d="M327.527,248.382L327.527,248.382c0,0-0.666,0-158.71,0c-5.542,0.337-7.772,2.533-9.508,5.209
	c-1.65,2.702-2.107,6.073-2.181,7.278c-0.03,0.341-0.011,0.415-0.011,0.415v75.692c0,2.294-1.871,4.146-4.15,4.146
	c-2.294,0-4.168-1.852-4.168-4.146v-75.692c0.019-0.34-0.019-4.909,2.361-10.035c2.234-5.126,7.91-10.874,17.298-11.162h0.056h0.127
	c158.224-0.015,158.89-0.015,158.89-0.015v0.015c2.297,0,4.15,1.852,4.15,4.157C331.677,246.53,329.825,248.382,327.527,248.382z"/>
<g>
	
		<linearGradient id="SVGID_1_" gradientUnits="userSpaceOnUse" x1="74.6781" y1="507.5909" x2="116.0719" y2="507.5909" gradientTransform="matrix(4.5384 -1.2007 -0.6687 -4.6469 177.6848 2637.261)">
		<stop  offset="0" style="stop-color:#959397"/>
		<stop  offset="0.234" style="stop-color:#A6A4AA"/>
		<stop  offset="0.731" style="stop-color:#C4C2CC"/>
		<stop  offset="1" style="stop-color:#D0CED9"/>
	</linearGradient>
	<polygon style="opacity:0.4;fill:url(#SVGID_1_);enable-background:new    ;" points="263.798,265.796 180.319,210.545 
		278.458,62.248 361.944,117.506 	"/>
</g>
<g>
</g>
<g>
</g>
<g>
</g>
<g>
</g>
<g>
</g>
<g>
</g>
<g>
</g>
<g>
</g>
<g>
</g>
<g>
</g>
<g>
</g>
<g>
</g>
<g>
</g>
<g>
</g>
<g>
</g>
</svg>
