<?xml version="1.0" encoding="UTF-8" standalone="no"?>
<!-- Generator: Adobe Illustrator 19.0.0, SVG Export Plug-In . SVG Version: 6.00 Build 0)  -->

<svg
   xmlns:dc="http://purl.org/dc/elements/1.1/"
   xmlns:cc="http://creativecommons.org/ns#"
   xmlns:rdf="http://www.w3.org/1999/02/22-rdf-syntax-ns#"
   xmlns:svg="http://www.w3.org/2000/svg"
   xmlns="http://www.w3.org/2000/svg"
   xmlns:sodipodi="http://sodipodi.sourceforge.net/DTD/sodipodi-0.dtd"
   xmlns:inkscape="http://www.inkscape.org/namespaces/inkscape"
   version="1.1"
   id="Capa_1"
   x="0px"
   y="0px"
   viewBox="0 0 487.622 487.622"
   style="enable-background:new 0 0 487.622 487.622;"
   xml:space="preserve"
   inkscape:version="0.91 r13725"
   sodipodi:docname="undo.svg"><metadata
     id="metadata47"><rdf:RDF><cc:Work
         rdf:about=""><dc:format>image/svg+xml</dc:format><dc:type
           rdf:resource="http://purl.org/dc/dcmitype/StillImage" /><dc:title></dc:title></cc:Work></rdf:RDF></metadata><defs
     id="defs45" /><sodipodi:namedview
     pagecolor="#ffffff"
     bordercolor="#666666"
     borderopacity="1"
     objecttolerance="10"
     gridtolerance="10"
     guidetolerance="10"
     inkscape:pageopacity="0"
     inkscape:pageshadow="2"
     inkscape:window-width="1172"
     inkscape:window-height="758"
     id="namedview43"
     showgrid="false"
     inkscape:zoom="0.48398144"
     inkscape:cx="243.811"
     inkscape:cy="243.811"
     inkscape:window-x="194"
     inkscape:window-y="201"
     inkscape:window-maximized="0"
     inkscape:current-layer="Capa_1" /><g
     id="g3"
     transform="matrix(1,0,0,-1,0,487.62201)"><g
       id="g5"><circle
         style="fill:#65b3ad"
         cx="243.811"
         cy="243.811"
         r="243.811"
         id="circle7" /><path
         style="opacity:0.37000002;fill:#56a49e;enable-background:new"
         d="m 487.622,243.811 c 0,-25.926 -4.062,-50.899 -11.559,-74.338 l -85.139,-50.042 -9.113,71.372 -26,27.008 -98.634,-52.41 2.2,85.41 -177.82,15.985 301.438,177.197 C 446.229,399.944 487.622,326.716 487.622,243.811 Z"
         id="path9"
         inkscape:connector-curvature="0" /><path
         style="fill:#ffffff"
         d="m 390.924,119.431 c -4.45,19.311 -12.688,36.823 -23.533,51.296 -10.826,14.501 -24.199,25.99 -38.531,34.005 -14.337,8.034 -29.606,12.579 -44.245,13.801 -7.324,0.62 -14.492,0.423 -21.368,-0.493 -2.051,-0.273 -4.072,-0.618 -6.069,-1.016 l 0,-51.623 -87.81,50.697 -87.811,50.698 87.811,50.697 87.81,50.697 0,-50.684 c 1.902,-0.462 3.801,-0.942 5.682,-1.459 6.317,-1.734 12.508,-3.772 18.534,-6.099 12.055,-4.652 23.446,-10.461 33.948,-17.227 21.025,-13.527 38.432,-30.875 51.374,-50.137 12.966,-19.265 21.482,-40.452 25.407,-61.616 3.957,-21.174 3.276,-42.259 -1.199,-61.537 z"
         id="path11"
         inkscape:connector-curvature="0" /></g></g><g
     id="g13" /><g
     id="g15" /><g
     id="g17" /><g
     id="g19" /><g
     id="g21" /><g
     id="g23" /><g
     id="g25" /><g
     id="g27" /><g
     id="g29" /><g
     id="g31" /><g
     id="g33" /><g
     id="g35" /><g
     id="g37" /><g
     id="g39" /><g
     id="g41" /></svg>