<?xml version="1.0" encoding="UTF-8" standalone="no"?>
<!-- Generator: Adobe Illustrator 19.0.0, SVG Export Plug-In . SVG Version: 6.00 Build 0)  -->

<svg
   xmlns:dc="http://purl.org/dc/elements/1.1/"
   xmlns:cc="http://creativecommons.org/ns#"
   xmlns:rdf="http://www.w3.org/1999/02/22-rdf-syntax-ns#"
   xmlns:svg="http://www.w3.org/2000/svg"
   xmlns="http://www.w3.org/2000/svg"
   xmlns:sodipodi="http://sodipodi.sourceforge.net/DTD/sodipodi-0.dtd"
   xmlns:inkscape="http://www.inkscape.org/namespaces/inkscape"
   version="1.1"
   id="Layer_1"
   x="0px"
   y="0px"
   viewBox="0 0 512 512"
   xml:space="preserve"
   inkscape:version="0.91 r13725"
   sodipodi:docname="group.svg"
   width="512"
   height="512"><metadata
     id="metadata4376"><rdf:RDF><cc:Work
         rdf:about=""><dc:format>image/svg+xml</dc:format><dc:type
           rdf:resource="http://purl.org/dc/dcmitype/StillImage" /><dc:title></dc:title></cc:Work></rdf:RDF></metadata><defs
     id="defs4374" /><sodipodi:namedview
     pagecolor="#ffffff"
     bordercolor="#666666"
     borderopacity="1"
     objecttolerance="10"
     gridtolerance="10"
     guidetolerance="10"
     inkscape:pageopacity="0"
     inkscape:pageshadow="2"
     inkscape:window-width="1514"
     inkscape:window-height="884"
     id="namedview4372"
     showgrid="false"
     inkscape:showpageshadow="false"
     fit-margin-top="0"
     fit-margin-left="0"
     fit-margin-right="0"
     fit-margin-bottom="0"
     inkscape:zoom="0.65186406"
     inkscape:cx="-9.0087464"
     inkscape:cy="196.03571"
     inkscape:window-x="0"
     inkscape:window-y="0"
     inkscape:window-maximized="0"
     inkscape:current-layer="Layer_1" /><circle
     style="fill:#6bc9ef"
     cx="256"
     cy="256"
     r="256"
     id="circle4332" /><path
     style="fill:#59b8de"
     d="m 509.195,293.92901 c -16.493,110.969 -104.174,198.699 -215.119,215.242 l -122.2,-122.2 14.27,-53.668 -58.906,-58.993 44.65,-18.31 14.022,-101.889 45.873,-45.07 80.181,78.687 -0.124,-4.398 -31.628,-37.669 58.227,-22.485 170.754,170.753 z"
     id="path4334"
     inkscape:connector-curvature="0" /><g
     id="g4336"
     transform="translate(0,5.6152344e-6)"><path
       style="fill:#f8f8f8"
       d="m 384.76,274.31 c -7.45,0.42 -13.034,1.507 -16.79,3.336 -3.818,1.878 -7.042,4.954 -9.76,9.291 -2.656,4.324 -4.596,9.748 -5.733,16.271 -0.791,4.905 -1.211,13.355 -1.211,25.413 0,19.767 -0.89,33.592 -2.656,41.462 -1.767,7.833 -5.053,14.146 -9.859,18.89 -4.806,4.744 -11.848,8.451 -21.077,11.218 -6.214,1.828 -16.012,2.767 -29.367,2.767 l -8.092,0 0,-36.631 c 10.959,0 18.099,-0.667 21.497,-2.076 3.336,-1.359 5.844,-3.348 7.4,-5.955 1.631,-2.607 2.409,-6.993 2.459,-13.244 0.049,-6.214 0.469,-18.112 1.198,-35.631 0.519,-10.65 1.878,-19.1 4.126,-25.512 2.236,-6.363 5.214,-11.799 8.92,-16.222 3.756,-4.435 8.5,-8.302 14.294,-11.687 -7.512,-4.905 -13.046,-9.711 -16.493,-14.356 -4.794,-6.721 -8.08,-15.283 -9.81,-25.71 -1.087,-7.104 -1.878,-22.794 -2.286,-47.059 -0.111,-7.61 -0.778,-12.725 -2.088,-15.283 -1.26,-2.508 -3.546,-4.485 -6.894,-5.844 -3.336,-1.408 -10.736,-2.088 -22.325,-2.088 l 0,-36.619 8.092,0 c 13.763,0 24.314,1.1 31.665,3.237 7.302,2.137 13.454,5.782 18.47,10.897 5.004,5.164 8.401,11.477 10.168,18.989 1.767,7.462 2.656,19.298 2.656,35.421 0,18.631 0.791,30.837 2.298,36.52 2.249,8.191 5.634,14.035 10.23,17.531 4.584,3.546 11.576,5.535 20.966,6.054 l 0,36.62 z"
       id="path4338"
       inkscape:connector-curvature="0" /><path
       style="fill:#f8f8f8"
       d="m 127.24,274.31 0,-36.62 c 7.45,-0.42 13.034,-1.52 16.852,-3.398 3.756,-1.828 6.98,-4.905 9.748,-9.229 2.767,-4.336 4.645,-9.76 5.683,-16.283 0.791,-4.892 1.211,-13.405 1.211,-25.562 0,-19.767 0.939,-33.543 2.767,-41.363 1.816,-7.833 5.102,-14.084 9.908,-18.828 4.794,-4.757 11.786,-8.451 20.916,-11.218 6.214,-1.828 16.012,-2.767 29.367,-2.767 l 8.092,0 0,36.619 c -11.379,0 -18.631,0.63 -21.855,1.927 -3.237,1.26 -5.584,3.188 -7.153,5.794 -1.507,2.607 -2.298,7.042 -2.298,13.355 0,6.412 -0.408,18.618 -1.248,36.52 -0.519,10.118 -1.828,18.26 -3.966,24.573 -2.137,6.251 -4.855,11.416 -8.191,15.493 -3.286,4.065 -8.352,8.29 -15.184,12.676 6.054,3.435 10.959,7.512 14.813,12.157 3.867,4.645 6.795,10.279 8.821,16.901 2.088,6.622 3.398,15.542 4.015,26.661 0.63,16.901 0.939,27.748 0.939,32.443 0,6.733 0.84,11.428 2.459,14.084 1.618,2.607 4.065,4.645 7.4,6.004 3.286,1.408 10.44,2.076 21.448,2.076 l 0,36.631 -8.092,0 c -13.763,0 -24.302,-1.1 -31.665,-3.286 -7.302,-2.199 -13.504,-5.844 -18.52,-10.959 -5.053,-5.065 -8.451,-11.379 -10.168,-18.89 -1.717,-7.45 -2.607,-19.298 -2.607,-35.421 0,-18.73 -0.84,-30.936 -2.459,-36.52 -2.236,-8.179 -5.634,-14.022 -10.168,-17.519 -4.544,-3.556 -11.475,-5.533 -20.865,-6.051 z"
       id="path4340"
       inkscape:connector-curvature="0" /></g><g
     id="g4342"
     transform="translate(0,5.6152344e-6)" /><g
     id="g4344"
     transform="translate(0,5.6152344e-6)" /><g
     id="g4346"
     transform="translate(0,5.6152344e-6)" /><g
     id="g4348"
     transform="translate(0,5.6152344e-6)" /><g
     id="g4350"
     transform="translate(0,5.6152344e-6)" /><g
     id="g4352"
     transform="translate(0,5.6152344e-6)" /><g
     id="g4354"
     transform="translate(0,5.6152344e-6)" /><g
     id="g4356"
     transform="translate(0,5.6152344e-6)" /><g
     id="g4358"
     transform="translate(0,5.6152344e-6)" /><g
     id="g4360"
     transform="translate(0,5.6152344e-6)" /><g
     id="g4362"
     transform="translate(0,5.6152344e-6)" /><g
     id="g4364"
     transform="translate(0,5.6152344e-6)" /><g
     id="g4366"
     transform="translate(0,5.6152344e-6)" /><g
     id="g4368"
     transform="translate(0,5.6152344e-6)" /><g
     id="g4370"
     transform="translate(0,5.6152344e-6)" /><g
     id="g4404"
     transform="matrix(10.473014,0,0,10.533608,-3904.9717,-3489.1563)"><path
       sodipodi:nodetypes="cc"
       inkscape:connector-curvature="0"
       id="path3381"
       d="m 375.60204,333.93027 43.44025,43.19032"
       style="fill:none;fill-rule:evenodd;stroke:#ff0000;stroke-width:5;stroke-linecap:round;stroke-linejoin:miter;stroke-miterlimit:4;stroke-dasharray:none;stroke-opacity:1" /><path
       sodipodi:nodetypes="cc"
       inkscape:connector-curvature="0"
       id="path3381-3"
       d="m 419.04216,333.93073 -43.44025,43.19032"
       style="fill:none;fill-rule:evenodd;stroke:#ff0000;stroke-width:5;stroke-linecap:round;stroke-linejoin:miter;stroke-miterlimit:4;stroke-dasharray:none;stroke-opacity:1" /></g></svg>