<?xml version="1.0" encoding="UTF-8" standalone="no"?>
<!-- Generator: Adobe Illustrator 19.0.0, SVG Export Plug-In . SVG Version: 6.00 Build 0)  -->

<svg
   xmlns:dc="http://purl.org/dc/elements/1.1/"
   xmlns:cc="http://creativecommons.org/ns#"
   xmlns:rdf="http://www.w3.org/1999/02/22-rdf-syntax-ns#"
   xmlns:svg="http://www.w3.org/2000/svg"
   xmlns="http://www.w3.org/2000/svg"
   xmlns:sodipodi="http://sodipodi.sourceforge.net/DTD/sodipodi-0.dtd"
   xmlns:inkscape="http://www.inkscape.org/namespaces/inkscape"
   version="1.1"
   id="Layer_1"
   x="0px"
   y="0px"
   viewBox="0 0 571.23837 571.23837"
   xml:space="preserve"
   inkscape:version="0.91 r13725"
   sodipodi:docname="width.svg"
   width="571.23834"
   height="571.23834"><metadata
     id="metadata41"><rdf:RDF><cc:Work
         rdf:about=""><dc:format>image/svg+xml</dc:format><dc:type
           rdf:resource="http://purl.org/dc/dcmitype/StillImage" /><dc:title></dc:title></cc:Work></rdf:RDF></metadata><defs
     id="defs39" /><sodipodi:namedview
     pagecolor="#ffffff"
     bordercolor="#666666"
     borderopacity="1"
     objecttolerance="10"
     gridtolerance="10"
     guidetolerance="10"
     inkscape:pageopacity="0"
     inkscape:pageshadow="2"
     inkscape:window-width="1002"
     inkscape:window-height="876"
     id="namedview37"
     showgrid="false"
     inkscape:zoom="0.46093662"
     inkscape:cx="282.36493"
     inkscape:cy="360.72415"
     inkscape:window-x="-4"
     inkscape:window-y="0"
     inkscape:window-maximized="0"
     inkscape:current-layer="Layer_1"
     fit-margin-top="0"
     fit-margin-left="0"
     fit-margin-right="0"
     fit-margin-bottom="0"
     showguides="false"
     inkscape:snap-global="true"
     inkscape:object-paths="true"
     inkscape:snap-intersection-paths="true"
     inkscape:object-nodes="true"
     inkscape:snap-smooth-nodes="true"
     inkscape:snap-object-midpoints="true"
     inkscape:snap-midpoints="true" /><circle
     style="opacity:1;fill:#32bea6;fill-opacity:1;stroke:#32bea6;stroke-width:5.19739103;stroke-linecap:round;stroke-miterlimit:4;stroke-dasharray:none;stroke-opacity:1"
     id="path4169"
     cx="285.61917"
     cy="285.61917"
     r="283.02048" /><path
     style="fill:#ffffff;fill-opacity:1;stroke:#ffffff;stroke-width:15;stroke-miterlimit:4;stroke-dasharray:none"
     d="m 195.29692,98.440494 c -9.35311,0 -16.93572,7.582616 -16.93572,16.935726 l 0,44.02136 c 0,9.35311 7.58261,16.93572 16.93572,16.93572 9.3531,0 16.93571,-7.58261 16.93571,-16.93572 l 0,-27.08638 56.44972,0 0,146.77453 -26.15055,0 c -9.35311,0 -16.93572,7.58261 -16.93572,16.93571 0,9.35311 7.58261,16.93572 16.93572,16.93572 l 43.08627,0 43.08847,0 c 9.3531,0 16.93571,-7.58261 16.93571,-16.93572 0,-9.3531 -7.58261,-16.93571 -16.93571,-16.93571 l -26.15274,0 0,-146.77453 56.4519,0 0,27.08566 c 0,9.3531 7.58261,16.93571 16.93572,16.93571 9.3531,0 16.93572,-7.58261 16.93572,-16.93571 l 0,-44.02064 c -0.002,-9.35311 -7.58407,-16.935726 -16.93718,-16.935726 l -90.32262,0 -90.32042,0 z"
     id="path3"
     inkscape:connector-curvature="0" /><path
     style="fill:#ffffff"
     d="m 334.54467,491.32694 c 4.583,4.912 10.792,7.395 17.019,7.395 5.688,0 11.39,-2.073 15.875,-6.259 l 58.181,-54.303 c 0.092,-0.085 0.169,-0.18 0.258,-0.268 0.324,-0.312 0.631,-0.638 0.937,-0.967 0.222,-0.239 0.445,-0.476 0.658,-0.725 0.303,-0.355 0.585,-0.728 0.864,-1.1 0.18,-0.24 0.366,-0.475 0.54,-0.721 0.296,-0.431 0.569,-0.878 0.838,-1.328 0.123,-0.206 0.256,-0.405 0.372,-0.614 0.303,-0.548 0.574,-1.109 0.833,-1.679 0.059,-0.129 0.129,-0.253 0.185,-0.383 0.298,-0.689 0.562,-1.392 0.791,-2.107 0.008,-0.025 0.019,-0.045 0.026,-0.07 0.177,-0.557 0.334,-1.125 0.47,-1.7 0.074,-0.312 0.124,-0.63 0.186,-0.945 0.051,-0.27 0.113,-0.534 0.158,-0.807 0.051,-0.334 0.081,-0.672 0.118,-1.007 0.029,-0.259 0.071,-0.517 0.092,-0.777 0.047,-0.604 0.071,-1.207 0.071,-1.815 0,-0.608 -0.025,-1.213 -0.071,-1.815 -0.02,-0.264 -0.062,-0.521 -0.092,-0.782 -0.037,-0.337 -0.067,-0.673 -0.118,-1.004 -0.043,-0.275 -0.107,-0.541 -0.16,-0.81 -0.061,-0.313 -0.112,-0.63 -0.185,-0.939 -0.137,-0.576 -0.292,-1.142 -0.47,-1.702 -0.006,-0.02 -0.016,-0.037 -0.022,-0.056 -0.23,-0.72 -0.497,-1.427 -0.798,-2.121 -0.054,-0.126 -0.121,-0.245 -0.177,-0.369 -0.261,-0.574 -0.535,-1.14 -0.841,-1.693 -0.113,-0.206 -0.245,-0.4 -0.365,-0.602 -0.271,-0.455 -0.545,-0.906 -0.847,-1.342 -0.168,-0.242 -0.354,-0.473 -0.531,-0.711 -0.282,-0.375 -0.566,-0.749 -0.872,-1.111 -0.211,-0.245 -0.433,-0.479 -0.653,-0.717 -0.306,-0.332 -0.614,-0.659 -0.94,-0.974 -0.09,-0.085 -0.164,-0.182 -0.256,-0.265 l -58.182,-54.303 c -9.394,-8.771 -24.121,-8.262 -32.892,1.134 -8.769,9.396 -8.262,24.123 1.134,32.892 l 15.019,14.016 -130.161,0.003 15.022,-14.02 c 9.398,-8.769 9.905,-23.498 1.134,-32.892 -8.771,-9.398 -23.499,-9.903 -32.892,-1.134 l -58.182,54.303 c -0.099,0.093 -0.185,0.199 -0.282,0.292 -0.299,0.289 -0.582,0.591 -0.866,0.894 -0.244,0.262 -0.489,0.521 -0.723,0.794 -0.279,0.331 -0.537,0.675 -0.797,1.018 -0.202,0.267 -0.41,0.528 -0.6,0.802 -0.276,0.4 -0.526,0.815 -0.776,1.23 -0.143,0.237 -0.296,0.469 -0.43,0.711 -0.282,0.509 -0.534,1.033 -0.776,1.561 -0.079,0.168 -0.166,0.327 -0.239,0.496 -0.279,0.645 -0.523,1.306 -0.743,1.977 -0.022,0.067 -0.051,0.13 -0.073,0.199 -0.174,0.548 -0.327,1.106 -0.461,1.671 -0.051,0.214 -0.085,0.43 -0.127,0.645 -0.074,0.355 -0.155,0.711 -0.213,1.072 -0.036,0.242 -0.056,0.489 -0.088,0.734 -0.042,0.34 -0.092,0.673 -0.119,1.015 -0.047,0.59 -0.074,1.182 -0.078,1.776 0,0.042 -0.006,0.085 -0.006,0.127 0,0 0,0 0,0.002 l 0,0.002 c 0,0.057 0.009,0.115 0.009,0.172 0.006,0.748 0.039,1.493 0.115,2.228 0.073,0.689 0.188,1.364 0.318,2.034 0.02,0.102 0.026,0.209 0.048,0.31 0.155,0.748 0.351,1.479 0.576,2.195 0.009,0.031 0.016,0.062 0.025,0.092 0.239,0.752 0.515,1.491 0.825,2.209 0.037,0.088 0.085,0.171 0.124,0.258 0.275,0.614 0.569,1.22 0.897,1.808 0.098,0.172 0.208,0.337 0.307,0.506 0.289,0.487 0.585,0.973 0.909,1.44 0.149,0.216 0.313,0.422 0.47,0.63 0.303,0.406 0.61,0.808 0.937,1.195 0.191,0.222 0.393,0.433 0.59,0.649 0.329,0.357 0.661,0.709 1.012,1.046 0.081,0.079 0.15,0.163 0.231,0.24 l 58.182,54.303 c 4.485,4.186 10.186,6.259 15.874,6.259 6.226,0 12.435,-2.482 17.019,-7.395 8.769,-9.396 8.262,-24.123 -1.134,-32.892 l -15.016,-14.013 130.157,-0.005 -15.019,14.016 c -9.395,8.769 -9.902,23.497 -1.133,32.891 z"
     id="path5"
     inkscape:connector-curvature="0" /><g
     id="g7"
     transform="translate(28.533937,4.6694658)" /><g
     id="g9"
     transform="translate(28.533937,4.6694658)" /><g
     id="g11"
     transform="translate(28.533937,4.6694658)" /><g
     id="g13"
     transform="translate(28.533937,4.6694658)" /><g
     id="g15"
     transform="translate(28.533937,4.6694658)" /><g
     id="g17"
     transform="translate(28.533937,4.6694658)" /><g
     id="g19"
     transform="translate(28.533937,4.6694658)" /><g
     id="g21"
     transform="translate(28.533937,4.6694658)" /><g
     id="g23"
     transform="translate(28.533937,4.6694658)" /><g
     id="g25"
     transform="translate(28.533937,4.6694658)" /><g
     id="g27"
     transform="translate(28.533937,4.6694658)" /><g
     id="g29"
     transform="translate(28.533937,4.6694658)" /><g
     id="g31"
     transform="translate(28.533937,4.6694658)" /><g
     id="g33"
     transform="translate(28.533937,4.6694658)" /><g
     id="g35"
     transform="translate(28.533937,4.6694658)" /></svg>